<svg width="70" height="27" viewBox="0 0 70 27" fill="none" xmlns="http://www.w3.org/2000/svg">
<g clip-path="url(#clip0_360_3507)">
<g clip-path="url(#clip1_360_3507)">
<path fill-rule="evenodd" clip-rule="evenodd" d="M13.4271 26.8542C20.8427 26.8542 26.8542 20.8427 26.8542 13.4271C26.8542 6.01152 20.8427 0 13.4271 0C6.01152 0 0 6.01152 0 13.4271C0 20.8427 6.01152 26.8542 13.4271 26.8542Z" fill="black"/>
<path fill-rule="evenodd" clip-rule="evenodd" d="M13.4271 4.87842L16.8377 10.1968L13.4271 15.5306L10.0166 10.1968L13.4271 4.87842Z" fill="white"/>
<path d="M24.2135 13.4308C24.2135 13.4296 24.2135 13.4284 24.2135 13.4272H24.2134C24.211 13.1451 23.9816 12.917 23.6988 12.917C23.416 12.917 23.1866 13.1451 23.1842 13.4272H23.1841C23.1841 18.8159 18.8157 23.1843 13.4271 23.1843C8.03841 23.1843 3.67004 18.8159 3.67004 13.4272H3.66995C3.66753 13.1451 3.43811 12.917 3.15533 12.917C2.87256 12.917 2.64313 13.1451 2.64071 13.4272H2.64062C2.64062 13.4284 2.64062 13.4296 2.64062 13.4308C2.64062 13.4311 2.64062 13.4314 2.64062 13.4317C2.64062 13.4322 2.64062 13.4327 2.64062 13.4332C2.64385 19.3876 7.47188 24.2137 13.4271 24.2137C19.3823 24.2137 24.2103 19.3876 24.2135 13.4332C24.2135 13.4327 24.2135 13.4322 24.2135 13.4317C24.2135 13.4314 24.2135 13.4311 24.2135 13.4308Z" fill="white"/>
</g>
<path fill-rule="evenodd" clip-rule="evenodd" d="M69.7519 19.7591L69.4498 20.0491C68.7462 20.7246 68.174 21.0134 67.2723 21.3764C66.3651 21.7475 65.5332 21.9365 64.4843 21.9365C63.4433 21.9365 62.4569 21.7507 61.5283 21.3768L61.5248 21.3754L61.5213 21.3739C60.6155 20.989 59.8169 20.4739 59.1289 19.8277L59.1257 19.8246L59.1225 19.8215C58.4492 19.1608 57.9111 18.3925 57.5085 17.5194L57.5068 17.5157L57.5052 17.512C57.1082 16.6031 56.9189 15.3502 56.9189 14.3611C56.9189 13.3554 57.1138 12.4084 57.5062 11.5246L57.5069 11.5231L57.5075 11.5217C57.9099 10.6347 58.4481 9.85867 59.1225 9.19687L59.1241 9.19532L59.1257 9.19379C59.8149 8.53209 60.6157 8.01521 61.5248 7.64302C62.4452 7.25837 63.2777 7.06152 64.3292 7.06152C65.3765 7.06152 66.3488 7.27021 67.2713 7.64159C68.1952 8.01355 69.0045 8.5307 69.6952 9.19379L70.0005 9.48684L68.3975 10.9937L68.1224 10.7367C67.6365 10.2828 67.0628 9.92091 66.3971 9.65249L66.3927 9.65071L66.3883 9.64882C65.7344 9.36699 65.1993 9.23268 64.4843 9.23268C63.773 9.23268 63.0974 9.37143 62.4539 9.64882L62.4521 9.64956L62.4504 9.65029C61.814 9.9176 61.2449 10.2861 60.7411 10.757L60.741 10.7571C60.2566 11.2096 59.8688 11.7511 59.5779 12.3858L59.5773 12.3872L59.5766 12.3886C59.2907 13.0001 59.1468 13.6559 59.1468 14.3611C59.1468 15.0604 59.2909 15.9955 59.5577 16.594C59.8346 17.2014 60.2099 17.7456 60.6852 18.2281C61.1725 18.695 61.7398 19.0689 62.3901 19.3492C63.0309 19.6254 63.7274 19.7653 64.4843 19.7653C65.1893 19.7653 65.7289 19.6426 66.4002 19.3851C67.0865 19.1082 67.4007 18.9552 67.8692 18.4933L68.1475 18.2189L69.7519 19.7591Z" fill="black"/>
<path fill-rule="evenodd" clip-rule="evenodd" d="M41.0236 21.8438L39.9924 19.3062C37.7704 20.4667 35.0216 20.4808 32.7888 19.3593L31.6969 21.8438H29.2246L35.0281 7.06689H37.7242L43.5031 21.8438H41.0236ZM33.5105 17.243C34.9987 18.3501 37.306 18.4105 38.8564 17.3468L38.8625 17.3426L39.2272 17.1119L36.3772 9.78421L33.5105 17.243Z" fill="black"/>
<path fill-rule="evenodd" clip-rule="evenodd" d="M48.4957 6.98218L48.4984 6.98222C49.5304 6.99678 50.5129 7.19356 51.443 7.57376C52.3834 7.95229 53.2072 8.47817 53.9105 9.15215C54.6292 9.81316 55.1947 10.5987 55.6064 11.5054C56.0223 12.4073 56.2286 13.3806 56.2286 14.4203C56.2286 15.4469 56.022 16.4191 55.6075 17.3327C55.2104 18.2261 54.6598 19.0112 53.957 19.6855L53.9554 19.687L53.9539 19.6885C53.2512 20.348 52.4287 20.8732 51.4902 21.2653L51.4889 21.2658L51.4875 21.2664C50.554 21.6482 49.5545 21.8376 48.4929 21.8376H44.1611V6.98218H48.4957ZM53.5457 12.3932L53.5438 12.3887C53.2602 11.7411 52.8708 11.188 52.3752 10.7254L52.3713 10.7217L52.3675 10.7179C51.8854 10.2425 51.3071 9.86712 50.6277 9.59334L50.6234 9.59161L50.6191 9.58977C49.9608 9.30617 49.2534 9.16314 48.4929 9.16314H46.4009V19.6566H48.4894C49.2379 19.6432 49.9416 19.4996 50.6034 19.2275C51.2706 18.9531 51.8522 18.5827 52.3515 18.1171C52.8513 17.6371 53.2497 17.0799 53.5478 16.4429C53.8413 15.8158 53.9888 15.1432 53.9888 14.4203C53.9888 13.6974 53.8413 13.0248 53.5478 12.3977L53.5457 12.3932Z" fill="black"/>
</g>
<defs>
<clipPath id="clip0_360_3507">
<rect width="70" height="26.8542" fill="white"/>
</clipPath>
<clipPath id="clip1_360_3507">
<rect width="26.8542" height="26.8542" fill="white"/>
</clipPath>
</defs>
</svg>
