<svg width="212" height="212" viewBox="0 0 212 212" fill="none" xmlns="http://www.w3.org/2000/svg">
<g clip-path="url(#clip0_361_3581)">
<path d="M210.303 105.908C210.303 163.563 163.563 210.303 105.908 210.303C48.2521 210.303 1.51297 163.563 1.51297 105.908C1.51297 48.2521 48.2521 1.51297 105.908 1.51297C163.563 1.51297 210.303 48.2521 210.303 105.908Z" fill="black" stroke="white" stroke-width="3.02594"/>
<path fill-rule="evenodd" clip-rule="evenodd" d="M105.908 38.4797L132.808 80.4294L105.908 122.5L79.0068 80.4294L105.908 38.4797Z" fill="white"/>
<path d="M190.987 105.936C190.987 105.927 190.987 105.917 190.987 105.908H190.986C190.967 103.682 189.157 101.883 186.927 101.883C184.696 101.883 182.887 103.682 182.868 105.908H182.867C182.867 148.411 148.411 182.867 105.907 182.867C63.4038 182.867 28.9477 148.411 28.9477 105.908H28.947C28.928 103.682 27.1183 101.883 24.8879 101.883C22.6575 101.883 20.8479 103.682 20.8288 105.908H20.8281C20.8281 105.917 20.8281 105.927 20.8281 105.936C20.8281 105.938 20.8281 105.941 20.8281 105.943C20.8281 105.947 20.8281 105.951 20.8281 105.955C20.8535 152.921 58.9352 190.987 105.907 190.987C152.88 190.987 190.961 152.921 190.987 105.955C190.987 105.951 190.987 105.947 190.987 105.943C190.987 105.941 190.987 105.938 190.987 105.936Z" fill="white"/>
</g>
<defs>
<clipPath id="clip0_361_3581">
<rect width="211.816" height="211.816" fill="white"/>
</clipPath>
</defs>
</svg>
