<svg width="212" height="212" viewBox="0 0 212 212" fill="none" xmlns="http://www.w3.org/2000/svg">
<g clip-path="url(#clip0_361_3566)">
<path fill-rule="evenodd" clip-rule="evenodd" d="M105.908 211.816C164.399 211.816 211.816 164.399 211.816 105.908C211.816 47.4165 164.399 0 105.908 0C47.4165 0 0 47.4165 0 105.908C0 164.399 47.4165 211.816 105.908 211.816Z" fill="#00FF29"/>
<path fill-rule="evenodd" clip-rule="evenodd" d="M105.908 38.4797L132.808 80.4294L105.908 122.5L79.0068 80.4294L105.908 38.4797Z" fill="white"/>
<path d="M190.987 105.936C190.987 105.927 190.987 105.917 190.987 105.908H190.986C190.967 103.682 189.157 101.883 186.927 101.883C184.696 101.883 182.887 103.682 182.868 105.908H182.867C182.867 148.411 148.411 182.867 105.907 182.867C63.4038 182.867 28.9477 148.411 28.9477 105.908H28.947C28.928 103.682 27.1183 101.883 24.8879 101.883C22.6575 101.883 20.8479 103.682 20.8288 105.908H20.8281C20.8281 105.917 20.8281 105.927 20.8281 105.936C20.8281 105.938 20.8281 105.941 20.8281 105.943C20.8281 105.947 20.8281 105.951 20.8281 105.955C20.8535 152.921 58.9352 190.987 105.907 190.987C152.88 190.987 190.961 152.921 190.987 105.955C190.987 105.951 190.987 105.947 190.987 105.943C190.987 105.941 190.987 105.938 190.987 105.936Z" fill="white"/>
</g>
<defs>
<clipPath id="clip0_361_3566">
<rect width="211.816" height="211.816" fill="white"/>
</clipPath>
</defs>
</svg>
